<mxfile host="app.diagrams.net" modified="2024-07-23T13:04:52.274Z" agent="Mozilla/5.0 (Macintosh; Intel Mac OS X 10_15_7) AppleWebKit/537.36 (KHTML, like Gecko) Chrome/126.0.0.0 Safari/537.36" version="24.7.1" etag="ysvueL40lfm1p2lmTM0c" type="github">
  <diagram name="Page-1" id="ZLaAWlNkbECfEdGEtOG3">
    <mxGraphModel>
      <root>
        <mxCell id="0" />
        <mxCell id="1" parent="0" />
      </root>
    </mxGraphModel>
  </diagram>
</mxfile>
